<svg xmlns="http://www.w3.org/2000/svg" width="989.452" height="108.67" viewBox="0 0 261.792 28.752"><path d="M25.235 28.506c-4.637-1.04-7.407-5.25-7.143-10.857.152-3.234 1.118-5.493 3.241-7.577.779-.764 1.142-1.023 2.027-1.445 2.116-1.008 4.655-1.213 7.172-.577 2.09.529 3.901 1.953 5.058 3.98.478.837 1.15 2.798 1.328 3.876.22 1.335.323 2.95.196 3.107-.09.112-1.813.143-7.919.143h-7.803l.001.541c.005 1.517.957 3.805 2.022 4.861 1.186 1.176 2.538 1.619 4.659 1.525 2.648-.117 4.063-1.033 5.248-3.393l.429-.855 1.428-.032c1.005-.023 1.453.008 1.512.103.124.2-.2 1.18-.719 2.175-1.214 2.325-3.385 3.92-6.105 4.488-1.11.232-3.46.2-4.632-.063zm8.638-12.514c-.116-.999-.622-2.475-1.095-3.2-.815-1.245-2.004-2.016-3.636-2.36-3.27-.686-6.14.881-7.241 3.954-.246.686-.524 2.032-.446 2.157.038.06 2.66.104 6.28.104h6.215zm58.34 12.505c-2.24-.565-4.342-2.073-5.709-4.096-1.138-1.734-1.46-2.316-2-4.447-.375-1.459-.35-3.567.061-4.96.384-1.301 1.269-3.24 1.908-4.178 1.375-2.02 3.372-3.487 5.59-4.11 1.155-.325 3.373-.347 4.519-.046 1.036.272 2.441.965 3.36 1.656.814.612 3.25 3.238 3.25 3.503 0 .2-2.244 2.776-2.418 2.776-.073 0-.36-.27-.64-.598-1.061-1.254-2.113-2.27-2.735-2.642-1.768-1.059-3.956-1.14-5.679-.21-.612.331-2.372 2.097-2.947 2.958-1.685 3.2-1.024 5.57.703 7.88 1.216 1.617 2.289 2.303 4.13 2.64 1.446.266 3.203-.26 4.512-1.348.349-.29 3.356-3.595 6.683-7.343 3.452-3.889 6.377-7.084 6.813-7.44.88-.72 2.508-1.551 3.593-1.834 1.148-.299 3.367-.276 4.518.048 2.264.636 4.305 2.157 5.638 4.2.724 1.11 1.62 3.1 1.92 4.259.376 1.457.35 3.566-.06 4.96-.292.994-.429 1.682-1 2.74-.215.4-.9 1.475-1.085 1.731-3.137 4.36-8.797 5.452-12.96 2.5-.984-.697-3.643-3.46-3.638-3.778.003-.19 2.293-2.68 2.464-2.68.087 0 .655.558 1.263 1.24 1.602 1.797 2.598 2.426 4.348 2.748.62.114.931.114 1.552 0 1.405-.258 1.966-.532 2.889-1.412 2.08-1.985 2.834-3.336 2.966-5.313.137-2.045-.78-4.052-2.63-5.763-1.225-1.134-2.482-1.65-3.996-1.645a5.71 5.71 0 0 0-3.738 1.386c-.305.267-3.23 3.488-6.5 7.159-3.269 3.67-6.228 6.94-6.576 7.263-1.159 1.08-2.53 1.817-4.113 2.213-1.158.29-3.071.281-4.256-.017zM9.918 28.14c-.106-.105-.138-3.018-.138-12.417 0-11.092-.018-12.286-.182-12.348-.1-.038-2.3-.07-4.89-.07H0l.032-1.34L.065.628l11.267-.03C21.822.57 22.609.583 22.742.763c.15.201.2 1.813.072 2.288l-.07.257h-4.69c-2.58 0-4.773.03-4.873.069-.165.062-.182 1.256-.182 12.348 0 9.399-.033 12.312-.138 12.417-.092.09-.588.136-1.472.136s-1.38-.046-1.471-.136zm31.041 0c-.2-.2-.2-27.805 0-28.004.092-.09.588-.137 1.472-.137s1.38.046 1.472.137c.104.104.138 2.185.138 8.671 0 7.404.022 8.522.165 8.443.092-.051 2.117-1.888 4.501-4.082 2.384-2.195 4.59-4.208 4.902-4.475l.568-.484h1.887c1.461 0 1.888.033 1.888.146 0 .08-1.914 1.879-4.254 3.995-2.34 2.117-4.254 3.888-4.254 3.935 0 .048 2.125 2.692 4.723 5.877 2.904 3.56 4.698 5.853 4.66 5.952-.05.13-.412.162-1.849.162-1.55 0-1.812-.026-1.987-.2-.11-.11-1.877-2.317-3.925-4.903-2.048-2.586-3.8-4.702-3.893-4.702-.093 0-.836.595-1.65 1.322l-1.482 1.323v3.443c0 2.526-.037 3.48-.138 3.58-.092.091-.588.137-1.472.137s-1.38-.046-1.472-.136zm20.7.042c-.114-.072-.138-2.149-.115-10.004l.03-9.912h2.989l.032 1.282c.018.706.065 1.283.104 1.283.04 0 .361-.317.715-.705 1.669-1.83 4.095-2.691 6.692-2.378 2.982.36 4.814 1.678 5.731 4.124.573 1.53.6 1.892.66 9.121.042 4.959.022 6.864-.073 7.041-.122.226-.222.242-1.492.242-.976 0-1.397-.041-1.486-.148-.084-.1-.135-2.314-.159-6.983-.034-6.63-.043-6.858-.28-7.549-.671-1.95-1.989-2.977-4.101-3.196-2.827-.293-4.929 1.062-5.908 3.807l-.32.9-.035 6.496c-.025 4.907-.068 6.517-.172 6.583-.184.116-2.627.112-2.812-.004zm96.734-.034c-2.002-.202-3.56-.93-4.975-2.327-.777-.767-1.024-1.106-1.457-2-.698-1.44-.935-2.54-.92-4.267.044-4.725 3.12-8.017 7.792-8.337 3.896-.266 7.243 1.787 8.569 5.256.483 1.262.621 3.763.293 5.289-.916 4.267-4.681 6.851-9.302 6.386zm3.03-.856c1.272-.282 2.357-.897 3.396-1.923 1.588-1.57 2.251-3.224 2.264-5.644.016-3.177-1.403-5.662-3.994-6.996-1.169-.6-2.067-.801-3.62-.808-1.572-.007-2.257.141-3.555.767-1.844.89-3.212 2.576-3.818 4.705-.333 1.167-.36 3.259-.059 4.384.867 3.235 3.378 5.431 6.502 5.69 1.085.09 1.92.039 2.884-.175zm60.762.866c-2.942-.3-4.802-2.3-4.63-4.978.104-1.595 1.009-2.84 2.697-3.708 1.63-.838 3.196-1.114 6.339-1.115 1.23 0 2.198-.05 2.328-.118.18-.096.221-.24.219-.77-.013-2.324-.66-3.878-1.96-4.705-1.22-.777-2.992-1.064-4.588-.743-1.006.202-2.294.775-3.022 1.345-.448.35-.722.354-.854.013-.156-.403 1.428-1.372 3.074-1.879 1.007-.31 2.965-.363 4.019-.11 1.527.367 2.813 1.281 3.394 2.412.623 1.214.648 1.465.753 7.52.055 3.103.114 5.797.132 5.985.03.312 0 .342-.312.342-.337 0-.347-.017-.423-.684a57.32 57.32 0 0 1-.154-1.682c-.042-.548-.116-.997-.164-.997s-.26.336-.47.746c-1.076 2.103-3.716 3.397-6.378 3.126zm2.547-.839c2.036-.537 3.652-2.347 4.133-4.63.099-.47.189-1.47.2-2.223l.019-1.368-2.214-.031c-4.004-.056-6.321.556-7.658 2.024-.661.725-.804 1.159-.81 2.454-.008 1.356.203 1.931.98 2.678.915.881 1.961 1.237 3.666 1.246.6.003 1.358-.064 1.684-.15zm29.013.843c-1.836-.185-3.327-.894-4.663-2.218-1.076-1.066-1.72-2.184-2.142-3.714-.222-.81-.265-1.243-.265-2.676 0-1.922.142-2.599.836-3.99 1.036-2.082 2.399-3.3 4.495-4.018.758-.26 1.07-.301 2.313-.307 1.196-.006 1.582.038 2.3.26 2.045.63 3.617 2.047 4.513 4.067.34.764.66 2.379.66 3.319v.612h-7.003c-3.852 0-7.086.031-7.186.069-.236.09-.237.7-.005 1.814.371 1.783 1.246 3.45 2.286 4.355.68.592 1.836 1.255 2.596 1.489.813.25 3.353.272 4.197.037 1.25-.347 2.417-1.068 3.388-2.091.448-.472.74-.54.916-.213.095.176.03.312-.353.744-1.595 1.796-4.206 2.73-6.883 2.46zm7.207-10.085c-.29-3.066-2.337-5.463-5.162-6.039-2.248-.458-4.215.042-5.817 1.48a7.414 7.414 0 0 0-1.97 2.812c-.352.875-.64 2.182-.523 2.37.044.072 2.525.113 6.805.113h6.736zm-120.645 9.96c-1.432-.237-3.177-1.182-3.888-2.107l-.327-.425.266-.213.265-.214.702.664c.387.365.884.773 1.105.905 1.149.69 3.07.983 4.4.673 1.471-.343 2.375-1.001 2.954-2.15.679-1.347.39-3.1-.65-3.951-.723-.591-1.439-.897-3.485-1.49-2.51-.727-3.26-1.079-3.997-1.878-.688-.747-.893-1.365-.878-2.65.009-.764.066-1.042.319-1.555.924-1.873 3.507-2.846 6.107-2.3 1.063.223 1.876.632 2.646 1.33.694.629.8.96.341 1.074-.24.06-.398-.029-.92-.517-1.16-1.09-2.704-1.539-4.394-1.28-1.135.174-1.967.577-2.554 1.239-1.05 1.183-1.077 3.249-.055 4.292.583.595 1.276.908 3.296 1.489 2.836.814 3.56 1.142 4.432 2.007.715.71.98 1.511.92 2.793-.037.81-.11 1.157-.35 1.653-.976 2.013-3.502 3.067-6.255 2.611zm46.273-.027c-1.186-.333-1.925-1.143-2.235-2.453-.118-.494-.154-2.096-.155-6.875-.001-5.575-.021-6.237-.184-6.3-.1-.037-.876-.069-1.724-.069h-1.543v-.282c0-.363.147-.396 1.955-.43l1.437-.029.057-2.28.058-2.28h.689l.058 2.28.057 2.28 2.3.063c1.265.035 2.312.074 2.328.086.016.012.029.15.029.307v.285h-2.22c-1.572 0-2.258.04-2.356.137-.104.103-.138 1.673-.138 6.365 0 6.76.02 7.01.638 7.737.158.186.532.458.83.604.467.228.69.261 1.579.236.569-.017 1.188-.042 1.376-.057.525-.042.538.328.019.543-.585.243-2.197.317-2.855.132zm-57.033-.218c-.664-.5-.362-1.568.444-1.568.728 0 1.026 1.012.433 1.474-.346.27-.605.298-.877.094zm44.824-.266c-.039-.1-.07-3.536-.07-7.637v-7.457l-.259-.06c-.142-.033-.88-.072-1.638-.088-1.327-.027-1.381-.037-1.416-.28-.047-.329.139-.369 1.876-.404l1.38-.028.067-3.591c.038-1.976.121-3.747.186-3.935.206-.606.713-1.519 1.06-1.911.725-.819 2.197-1.31 3.507-1.172.829.088 1.023.184.965.475-.039.192-.136.21-.92.175-1.326-.06-2.072.192-2.82.953-.485.494-.647.766-.861 1.444-.252.792-.265 1.006-.265 4.199v3.363l2.127.064c1.17.035 2.14.073 2.156.085.015.012.028.15.028.307v.285h-2.046c-1.438 0-2.088.041-2.184.137-.105.104-.138 1.969-.138 7.697v7.56h-.333c-.197 0-.361-.074-.402-.181zm22.242-.084c-.086-.222-2.647-8.9-4.146-14.045-.423-1.45-.436-1.77-.073-1.766.323.005.47.307.948 1.95.281.965 1.238 4.268 2.127 7.341.889 3.073 1.658 5.632 1.71 5.686.053.054.17-.048.26-.228s1.239-3.508 2.554-7.396c1.315-3.888 2.472-7.134 2.57-7.212.205-.163.694-.185.921-.043.085.054 1.286 3.397 2.67 7.43 1.384 4.033 2.563 7.38 2.621 7.437.064.063.131.063.17 0 .036-.058.668-2.179 1.403-4.714l2.13-7.337c.736-2.533.892-2.912 1.2-2.912.47 0 .443.112-1.922 8.104l-2.341 7.912h-1.125l-1.583-4.56-2.581-7.445c-.55-1.586-1.05-2.866-1.114-2.845-.136.045-.122.006-2.938 8.18-1.2 3.48-2.218 6.418-2.263 6.528-.06.148-.213.2-.589.2-.425 0-.524-.043-.61-.265zm40.453-5.237c-.005-3.026-.049-6.58-.1-7.896-.097-2.547-.059-2.784.423-2.632.195.061.236.214.3 1.112.041.573.075 1.393.075 1.822 0 .43.039.78.086.78.047 0 .28-.398.515-.884.96-1.978 2.55-3.095 4.683-3.292.616-.057.786-.035.911.114.24.287.072.528-.37.528-2.465 0-4.574 1.844-5.36 4.687-.365 1.317-.459 2.777-.462 7.143l-.003 4.02h-.69l-.008-5.502z"/></svg>